A computer generated update of the Serge Danot's classic 1970s children's series!

After Dougal accidentally releases the evil Zeebad from his prison, he and pals Ermintrude (Lumley), Brian (Broadbent) and Dylan (Nighy) embark on a quest to find three magic diamonds before Zeebad uses them to encase the world in ice!


Format : MPEG-4
Format profile : Base Media / Version 2
Codec ID : mp42
File size : 1.19 GiB
Duration : 1h 18mn
Overall bit rate : 2 164 Kbps
Encoded date : UTC 2009-10-01 13:28:25
Tagged date : UTC 2009-10-01 17:31:55
Writing application : HandBrake 0.9.3 2008112300

Video
ID : 1
Format : AVC
Format/Info : Advanced Video Codec
Format profile : Main@L4.0
Format settings, CABAC : Yes
Format settings, ReFrames : 3 frames
Codec ID : avc1
Codec ID/Info : Advanced Video Coding
Duration : 1h 18mn
Bit rate mode : Variable
Bit rate : 2 000 Kbps
Width : 720 pixels
Height : 576 pixels
Display aspect ratio : 16:9
Frame rate mode : Variable
Frame rate : 25.000 fps
Minimum frame rate : 12.500 fps
Maximum frame rate : 37.325 fps
Standard : PAL
Resolution : 24 bits
Colorimetry : 4:2:0
Scan type : Progressive
Bits/(Pixel*Frame) : 0.193
Stream size : 1.10 GiB (92%)
Writing library : x264 core 65


Audio
ID : 2
Format : AAC
Format/Info : Advanced Audio Codec
Format version : Version 4
Format profile : LC
Format settings, SBR : No
Codec ID : 40
Duration : 1h 18mn
Bit rate mode : Variable
Bit rate : 160 Kbps
Maximum bit rate : 208 Kbps
Channel(s) : 2 channels
Channel positions : L R
Sampling rate : 48.0 KHz
Resolution : 16 bits
Stream size : 89.9 MiB (7%)
Language : English
Encoded date : UTC 2009-10-01 13:28:26
Tagged date : UTC 2009-10-01 17:31:53